<?xml version="1.0" encoding="UTF-8" standalone="no"?><!DOCTYPE svg PUBLIC "-//W3C//DTD SVG 1.1//EN" "http://www.w3.org/Graphics/SVG/1.1/DTD/svg11.dtd"><svg width="100%" height="100%" viewBox="0 0 5693 1642" version="1.1" xmlns="http://www.w3.org/2000/svg" xmlns:xlink="http://www.w3.org/1999/xlink" xml:space="preserve" xmlns:serif="http://www.serif.com/" style="fill-rule:evenodd;clip-rule:evenodd;stroke-miterlimit:10;"><g id="din_rail_5x24"><g><g id="din_24"><g><g id="prowadnice-pionowe" serif:id="prowadnice pionowe"><g><rect x="55.37" y="5.449" width="177.167" height="1631.102" style="fill:#fff;stroke:#1e1e1c;stroke-width:5.55px;"/><rect x="5460.464" y="5.449" width="177.166" height="1631.102" style="fill:#fff;stroke:#1e1e1c;stroke-width:5.55px;"/></g></g><g id="din-th-5-sztuk" serif:id="din th 5 sztuk"><g><rect x="55.457" y="614.306" width="5582.085" height="413.387" style="fill:#fff;stroke:#1e1e1c;stroke-width:5.55px;"/></g></g><g id="wypusty-din-th" serif:id="wypusty din th"><g><rect x="19.332" y="952.25" width="5654.336" height="75" style="fill:#fff;stroke:#1e1e1c;stroke-width:5.55px;"/><rect x="19.332" y="614.75" width="5654.336" height="75" style="fill:#fff;stroke:#1e1e1c;stroke-width:5.55px;"/></g></g><g id="otwory-na-szynie-din-2" serif:id="otwory na szynie din 2"><g><path d="M3048.281,877.25l-403.562,0c-10.866,0 -19.675,-8.808 -19.675,-19.674l0,-73.15c0,-10.867 8.809,-19.675 19.675,-19.675l403.562,0c10.867,0 19.675,8.808 19.675,19.675l0,73.15c0,10.866 -8.808,19.674 -19.675,19.674Z" style="fill:#fff;stroke:#1e1e1c;stroke-width:5.55px;"/><path d="M2310.092,877.25l-403.562,0c-10.866,0 -19.675,-8.808 -19.675,-19.674l0,-73.15c0,-10.867 8.809,-19.675 19.675,-19.675l403.562,0c10.867,0 19.675,8.808 19.675,19.675l0,73.15c0,10.866 -8.808,19.674 -19.675,19.674Z" style="fill:#fff;stroke:#1e1e1c;stroke-width:5.55px;"/><path d="M1571.904,877.25l-403.562,0c-10.866,0 -19.675,-8.808 -19.675,-19.674l0,-73.15c0,-10.867 8.809,-19.675 19.675,-19.675l403.562,0c10.866,0 19.675,8.808 19.675,19.675l0,73.15c0,10.866 -8.809,19.674 -19.675,19.674Z" style="fill:#fff;stroke:#1e1e1c;stroke-width:5.55px;"/><path d="M833.715,877.25l-403.562,0c-10.866,0 -19.675,-8.808 -19.675,-19.674l0,-73.15c0,-10.867 8.809,-19.675 19.675,-19.675l403.562,0c10.866,0 19.675,8.808 19.675,19.675l0,73.15c0,10.866 -8.809,19.674 -19.675,19.674Z" style="fill:#fff;stroke:#1e1e1c;stroke-width:5.55px;"/><path d="M3786.47,877.25l-403.562,0c-10.866,0 -19.675,-8.808 -19.675,-19.674l0,-73.15c0,-10.867 8.809,-19.675 19.675,-19.675l403.562,0c10.867,0 19.675,8.808 19.675,19.675l0,73.15c0,10.866 -8.808,19.674 -19.675,19.674Z" style="fill:#fff;stroke:#1e1e1c;stroke-width:5.55px;"/><path d="M4524.659,877.25l-403.562,0c-10.867,0 -19.675,-8.808 -19.675,-19.674l0,-73.15c0,-10.867 8.808,-19.675 19.675,-19.675l403.562,0c10.866,0 19.674,8.808 19.674,19.675l0,73.15c0,10.866 -8.808,19.674 -19.674,19.674Z" style="fill:#fff;stroke:#1e1e1c;stroke-width:5.55px;"/><path d="M5262.848,877.25l-403.562,0c-10.867,0 -19.675,-8.808 -19.675,-19.674l0,-73.15c0,-10.867 8.808,-19.675 19.675,-19.675l403.562,0c10.866,0 19.674,8.808 19.674,19.675l0,73.15c0,10.866 -8.808,19.674 -19.674,19.674Z" style="fill:#fff;stroke:#1e1e1c;stroke-width:5.55px;"/></g></g><g id="Mocowanie-szyn-din-th" serif:id="Mocowanie szyn din th"><g><path d="M181.452,822.032c0,-20.697 -16.803,-37.5 -37.5,-37.5c-20.697,0 -37.5,16.803 -37.5,37.5c0,20.696 16.803,37.499 37.5,37.499c20.697,0 37.5,-16.803 37.5,-37.499Z" style="fill:#fff;stroke:#1e1e1c;stroke-width:5.55px;"/><path d="M5586.548,819.969c0,-20.697 -16.803,-37.5 -37.501,-37.5c-20.696,0 -37.5,16.803 -37.5,37.5c0,20.696 16.803,37.5 37.5,37.5c20.697,0 37.501,-16.804 37.501,-37.5Z" style="fill:#fff;stroke:#1e1e1c;stroke-width:5.55px;"/></g></g></g></g></g></g></svg>