<?xml version="1.0" encoding="UTF-8" standalone="no"?><!DOCTYPE svg PUBLIC "-//W3C//DTD SVG 1.1//EN" "http://www.w3.org/Graphics/SVG/1.1/DTD/svg11.dtd"><svg width="100%" height="100%" viewBox="0 0 768 390" version="1.1" xmlns="http://www.w3.org/2000/svg" xmlns:xlink="http://www.w3.org/1999/xlink" xml:space="preserve" xmlns:serif="http://www.serif.com/" style="fill-rule:evenodd;clip-rule:evenodd;stroke-linecap:round;stroke-linejoin:round;stroke-miterlimit:1.5;"><g><rect id="Obudowa" x="33.101" y="162.164" width="701.797" height="218.51" style="fill:#ebebeb;stroke:#000;stroke-width:3.04px;"/><path id="Pin-L1" serif:id="Pin L1" d="M217.56,3.255l25.695,0l0,158.91l-130.388,0l0,-158.91l25.695,0l0,50.703c0,21.8 17.699,39.499 39.499,39.499c21.8,0 39.499,-17.699 39.499,-39.499l0,-50.703Z" style="fill:#ebebeb;stroke:#000;stroke-width:2.82px;"/><path id="Pin-L2" serif:id="Pin L2" d="M426.99,3.255l25.695,0l0,158.91l-130.388,0l0,-158.91l25.695,0l0,50.703c0,21.8 17.699,39.499 39.499,39.499c21.8,0 39.499,-17.699 39.499,-39.499l0,-50.703Z" style="fill:#ebebeb;stroke:#000;stroke-width:2.82px;"/><path id="Pin-L3" serif:id="Pin L3" d="M636.42,3.255l25.695,0l0,158.91l-130.388,0l0,-158.91l25.695,0l0,50.703c0,21.8 17.699,39.499 39.499,39.499c21.8,0 39.499,-17.699 39.499,-39.499l0,-50.703Z" style="fill:#ebebeb;stroke:#000;stroke-width:2.82px;"/><path id="Osłona-Lewa" serif:id="Osłona Lewa" d="M64.286,157.902l0,227.036c0,0.998 -0.81,1.808 -1.808,1.808l-55.59,0c-2.744,0 -4.971,-2.228 -4.971,-4.971l0,-220.709c0,-2.744 2.228,-4.971 4.971,-4.971l55.59,0c0.998,0 1.808,0.81 1.808,1.808Z" style="fill:#ebebeb;stroke:#000;stroke-width:3.04px;"/><path id="Osłona-Prawa" serif:id="Osłona Prawa" d="M703.714,384.938l-0,-227.036c0,-0.998 0.81,-1.808 1.808,-1.808l55.59,-0c2.744,0 4.971,2.228 4.971,4.971l0,220.709c0,2.744 -2.228,4.971 -4.971,4.971l-55.59,0c-0.998,0 -1.808,-0.81 -1.808,-1.808Z" style="fill:#ebebeb;stroke:#000;stroke-width:2.97px;"/><g transform="matrix(50,0,0,50,208.628054,228.940972)"></g><text x="153.013px" y="228.941px" style="font-family:'ArialMT', 'Arial', sans-serif;font-size:50px;">L1</text><g transform="matrix(50,0,0,50,414.78626,228.940972)"></g><text x="359.171px" y="228.941px" style="font-family:'ArialMT', 'Arial', sans-serif;font-size:50px;">L2</text><g transform="matrix(50,0,0,50,627.487434,228.306207)"></g><text x="571.872px" y="228.306px" style="font-family:'ArialMT', 'Arial', sans-serif;font-size:50px;">L3</text><path id="cień-6" serif:id="cień 6" d="M760.577,167.653l0,207.533" style="fill:none;stroke:#000;stroke-width:0.67px;"/><path id="cień-5" serif:id="cień 5" d="M7.423,167.653l0,207.533" style="fill:none;stroke:#000;stroke-width:0.67px;"/><path id="cień-4" serif:id="cień 4" d="M708.681,380.621l51.895,0" style="fill:none;stroke:#000;stroke-width:0.67px;"/><path id="cień-3" serif:id="cień 3" d="M7.154,380.621l51.895,0" style="fill:none;stroke:#000;stroke-width:0.67px;"/><path id="cień-2" serif:id="cień 2" d="M96.604,372.842l574.792,0" style="fill:none;stroke:#000;stroke-width:0.67px;"/><path id="cień-1" serif:id="cień 1" d="M100.096,170.233l574.792,0" style="fill:none;stroke:#000;stroke-width:0.67px;"/></g></svg>