<?xml version="1.0" encoding="UTF-8" standalone="no"?><!DOCTYPE svg PUBLIC "-//W3C//DTD SVG 1.1//EN" "http://www.w3.org/Graphics/SVG/1.1/DTD/svg11.dtd"><svg width="100%" height="100%" viewBox="0 0 750 473" version="1.1" xmlns="http://www.w3.org/2000/svg" xmlns:xlink="http://www.w3.org/1999/xlink" xml:space="preserve" xmlns:serif="http://www.serif.com/" style="fill-rule:evenodd;clip-rule:evenodd;stroke-miterlimit:10;"><g id="Warstwa-1" serif:id="Warstwa 1"><g><rect x="0" y="0.279" width="150" height="472.442" style="fill:#fff;stroke:#1d1d1b;stroke-width:4.17px;"/><rect x="150" y="0.279" width="150" height="472.442" style="fill:#fff;stroke:#1d1d1b;stroke-width:4.17px;"/><rect x="300" y="0.279" width="150" height="472.442" style="fill:#fff;stroke:#1d1d1b;stroke-width:4.17px;"/><rect x="450" y="0.279" width="150" height="472.442" style="fill:#009fe3;stroke:#1d1d1b;stroke-width:4.17px;"/><rect x="600" y="0.279" width="150" height="472.442" style="fill:#71b62f;stroke:#1d1d1b;stroke-width:4.17px;"/><text x="40.099px" y="257.3px" style="font-family:'ArialMT', 'Arial', sans-serif;font-size:70.866px;fill:#1d1d1b;">L<tspan x="74.364px 108.629px 193.026px 227.291px 261.556px 341.213px 375.478px 409.744px 502.005px 548.035px 639.057px 681.177px " y="257.3px 257.3px 257.3px 257.3px 257.3px 257.3px 257.3px 257.3px 257.3px 257.3px 257.3px 257.3px ">1 L2 L3 N PE</tspan></text><path d="M113.008,65.248c0,20.992 -17.017,38.008 -38.008,38.008c-20.992,0 -38.008,-17.017 -38.008,-38.008c0,-20.992 17.017,-38.008 38.008,-38.008c20.992,0 38.008,17.017 38.008,38.008" style="fill:#ececec;fill-rule:nonzero;"/><path d="M113.008,65.248c0,-20.977 -17.031,-38.008 -38.008,-38.008c-20.977,0 -38.008,17.031 -38.008,38.008c0,20.977 17.031,38.008 38.008,38.008c20.977,0 38.008,-17.031 38.008,-38.008Z" style="fill:none;stroke:#1d1d1b;stroke-width:4.17px;"/><path d="M263.008,65.248c0,20.992 -17.017,38.008 -38.008,38.008c-20.992,0 -38.008,-17.017 -38.008,-38.008c0,-20.992 17.017,-38.008 38.008,-38.008c20.992,0 38.008,17.017 38.008,38.008" style="fill:#ececec;fill-rule:nonzero;"/><path d="M263.008,65.248c0,-20.977 -17.031,-38.008 -38.008,-38.008c-20.977,0 -38.008,17.031 -38.008,38.008c0,20.977 17.031,38.008 38.008,38.008c20.977,0 38.008,-17.031 38.008,-38.008Z" style="fill:none;stroke:#1d1d1b;stroke-width:4.17px;"/><path d="M413.008,65.248c0,20.992 -17.017,38.008 -38.008,38.008c-20.992,0 -38.008,-17.017 -38.008,-38.008c0,-20.992 17.017,-38.008 38.008,-38.008c20.992,0 38.008,17.017 38.008,38.008" style="fill:#ececec;fill-rule:nonzero;"/><path d="M413.008,65.248c0,-20.977 -17.031,-38.008 -38.008,-38.008c-20.977,0 -38.008,17.031 -38.008,38.008c0,20.977 17.031,38.008 38.008,38.008c20.977,0 38.008,-17.031 38.008,-38.008Z" style="fill:none;stroke:#1d1d1b;stroke-width:4.17px;"/><path d="M563.008,65.248c0,20.992 -17.017,38.008 -38.008,38.008c-20.992,0 -38.008,-17.017 -38.008,-38.008c0,-20.992 17.017,-38.008 38.008,-38.008c20.992,0 38.008,17.017 38.008,38.008" style="fill:#ececec;fill-rule:nonzero;"/><path d="M563.008,65.248c0,-20.977 -17.031,-38.008 -38.008,-38.008c-20.977,0 -38.008,17.031 -38.008,38.008c0,20.977 17.031,38.008 38.008,38.008c20.977,0 38.008,-17.031 38.008,-38.008Z" style="fill:none;stroke:#1d1d1b;stroke-width:4.17px;"/><path d="M713.008,65.248c0,20.992 -17.017,38.008 -38.008,38.008c-20.992,0 -38.008,-17.017 -38.008,-38.008c0,-20.992 17.017,-38.008 38.008,-38.008c20.992,0 38.008,17.017 38.008,38.008" style="fill:#ececec;fill-rule:nonzero;"/><path d="M713.008,65.248c0,-20.977 -17.031,-38.008 -38.008,-38.008c-20.977,0 -38.008,17.031 -38.008,38.008c0,20.977 17.031,38.008 38.008,38.008c20.977,0 38.008,-17.031 38.008,-38.008Z" style="fill:none;stroke:#1d1d1b;stroke-width:4.17px;"/><path d="M113.008,401.778c0,20.992 -17.017,38.008 -38.008,38.008c-20.992,0 -38.008,-17.017 -38.008,-38.008c0,-20.992 17.017,-38.008 38.008,-38.008c20.992,0 38.008,17.017 38.008,38.008" style="fill:#ececec;fill-rule:nonzero;"/><path d="M113.008,401.778c0,-20.977 -17.031,-38.008 -38.008,-38.008c-20.977,0 -38.008,17.031 -38.008,38.008c0,20.977 17.031,38.008 38.008,38.008c20.977,0 38.008,-17.031 38.008,-38.008Z" style="fill:none;stroke:#1d1d1b;stroke-width:4.17px;"/><path d="M263.008,401.778c0,20.992 -17.017,38.008 -38.008,38.008c-20.992,0 -38.008,-17.017 -38.008,-38.008c0,-20.992 17.017,-38.008 38.008,-38.008c20.992,0 38.008,17.017 38.008,38.008" style="fill:#ececec;fill-rule:nonzero;"/><path d="M263.008,401.778c0,-20.977 -17.031,-38.008 -38.008,-38.008c-20.977,0 -38.008,17.031 -38.008,38.008c0,20.977 17.031,38.008 38.008,38.008c20.977,0 38.008,-17.031 38.008,-38.008Z" style="fill:none;stroke:#1d1d1b;stroke-width:4.17px;"/><path d="M413.008,401.778c0,20.992 -17.017,38.008 -38.008,38.008c-20.992,0 -38.008,-17.017 -38.008,-38.008c0,-20.992 17.017,-38.008 38.008,-38.008c20.992,0 38.008,17.017 38.008,38.008" style="fill:#ececec;fill-rule:nonzero;"/><path d="M413.008,401.778c0,-20.977 -17.031,-38.008 -38.008,-38.008c-20.977,0 -38.008,17.031 -38.008,38.008c0,20.977 17.031,38.008 38.008,38.008c20.977,0 38.008,-17.031 38.008,-38.008Z" style="fill:none;stroke:#1d1d1b;stroke-width:4.17px;"/><path d="M563.008,401.778c0,20.992 -17.017,38.008 -38.008,38.008c-20.992,0 -38.008,-17.017 -38.008,-38.008c0,-20.992 17.017,-38.008 38.008,-38.008c20.992,0 38.008,17.017 38.008,38.008" style="fill:#ececec;fill-rule:nonzero;"/><path d="M563.008,401.778c0,-20.977 -17.031,-38.008 -38.008,-38.008c-20.977,0 -38.008,17.031 -38.008,38.008c0,20.977 17.031,38.008 38.008,38.008c20.977,0 38.008,-17.031 38.008,-38.008Z" style="fill:none;stroke:#1d1d1b;stroke-width:4.17px;"/><path d="M713.008,401.778c0,20.992 -17.017,38.008 -38.008,38.008c-20.992,0 -38.008,-17.017 -38.008,-38.008c0,-20.992 17.017,-38.008 38.008,-38.008c20.992,0 38.008,17.017 38.008,38.008" style="fill:#ececec;fill-rule:nonzero;"/><path d="M713.008,401.778c0,-20.977 -17.031,-38.008 -38.008,-38.008c-20.977,0 -38.008,17.031 -38.008,38.008c0,20.977 17.031,38.008 38.008,38.008c20.977,0 38.008,-17.031 38.008,-38.008Z" style="fill:none;stroke:#1d1d1b;stroke-width:4.17px;"/><path d="M79.608,137.81l-9.217,0c-26.092,0 -47.242,-21.15 -47.242,-47.246l0,-87.196l103.704,0l0,87.196c0,26.096 -21.154,47.246 -47.246,47.246Z" style="fill:none;fill-rule:nonzero;stroke:#1d1d1b;stroke-width:4.17px;"/><path d="M229.608,137.81l-9.217,0c-26.092,0 -47.242,-21.15 -47.242,-47.246l0,-87.196l103.704,0l0,87.196c0,26.096 -21.154,47.246 -47.246,47.246Z" style="fill:none;fill-rule:nonzero;stroke:#1d1d1b;stroke-width:4.17px;"/><path d="M379.608,137.81l-9.217,0c-26.092,0 -47.242,-21.15 -47.242,-47.246l0,-87.196l103.704,0l0,87.196c0,26.096 -21.154,47.246 -47.246,47.246Z" style="fill:none;fill-rule:nonzero;stroke:#1d1d1b;stroke-width:4.17px;"/><path d="M529.608,137.81l-9.217,0c-26.092,0 -47.242,-21.15 -47.242,-47.246l0,-87.196l103.704,0l0,87.196c0,26.096 -21.154,47.246 -47.246,47.246Z" style="fill:none;fill-rule:nonzero;stroke:#1d1d1b;stroke-width:4.17px;"/><path d="M679.608,137.81l-9.217,0c-26.092,0 -47.242,-21.15 -47.242,-47.246l0,-87.196l103.704,0l0,87.196c0,26.096 -21.154,47.246 -47.246,47.246Z" style="fill:none;fill-rule:nonzero;stroke:#1d1d1b;stroke-width:4.17px;"/><path d="M670.392,335.403l9.217,0c26.092,0 47.242,21.15 47.242,47.246l0,87.196l-103.704,0l0,-87.196c0,-26.096 21.154,-47.246 47.246,-47.246Z" style="fill:none;fill-rule:nonzero;stroke:#1d1d1b;stroke-width:4.17px;"/><path d="M520.392,335.403l9.217,0c26.092,0 47.242,21.15 47.242,47.246l0,87.196l-103.704,0l0,-87.196c0,-26.096 21.154,-47.246 47.246,-47.246Z" style="fill:none;fill-rule:nonzero;stroke:#1d1d1b;stroke-width:4.17px;"/><path d="M370.392,335.403l9.217,0c26.092,0 47.242,21.15 47.242,47.246l0,87.196l-103.704,0l0,-87.196c0,-26.096 21.154,-47.246 47.246,-47.246Z" style="fill:none;fill-rule:nonzero;stroke:#1d1d1b;stroke-width:4.17px;"/><path d="M220.392,335.403l9.217,0c26.092,0 47.242,21.15 47.242,47.246l0,87.196l-103.704,0l0,-87.196c0,-26.096 21.154,-47.246 47.246,-47.246Z" style="fill:none;fill-rule:nonzero;stroke:#1d1d1b;stroke-width:4.17px;"/><path d="M70.392,335.403l9.217,0c26.092,0 47.242,21.15 47.242,47.246l0,87.196l-103.704,0l-0,-87.196c0,-26.096 21.154,-47.246 47.246,-47.246Z" style="fill:none;fill-rule:nonzero;stroke:#1d1d1b;stroke-width:4.17px;"/></g></g></svg>